<svg width="20" height="20" viewBox="0 0 20 20" fill="none" xmlns="http://www.w3.org/2000/svg">
<g id="Frame">
<path id="Vector" d="M9.375 10V3.75C9.375 3.58424 9.44085 3.42527 9.55806 3.30806C9.67527 3.19085 9.83424 3.125 10 3.125C10.1658 3.125 10.3247 3.19085 10.4419 3.30806C10.5592 3.42527 10.625 3.58424 10.625 3.75V10C10.625 10.1658 10.5592 10.3247 10.4419 10.4419C10.3247 10.5592 10.1658 10.625 10 10.625C9.83424 10.625 9.67527 10.5592 9.55806 10.4419C9.44085 10.3247 9.375 10.1658 9.375 10ZM14.0914 3.85156C13.9526 3.76383 13.7848 3.73425 13.6244 3.76922C13.4639 3.80419 13.3237 3.9009 13.234 4.03844C13.1443 4.17599 13.1123 4.34331 13.145 4.50424C13.1777 4.66516 13.2724 4.80677 13.4086 4.89844C15.2141 6.07578 16.25 7.93516 16.25 10C16.25 11.6576 15.5915 13.2473 14.4194 14.4194C13.2473 15.5915 11.6576 16.25 10 16.25C8.3424 16.25 6.75269 15.5915 5.58058 14.4194C4.40848 13.2473 3.75 11.6576 3.75 10C3.75 7.93516 4.78594 6.07578 6.59141 4.89844C6.72765 4.80677 6.82234 4.66516 6.85502 4.50424C6.88769 4.34331 6.85571 4.17599 6.766 4.03844C6.67629 3.9009 6.53606 3.80419 6.37561 3.76922C6.21517 3.73425 6.0474 3.76383 5.90859 3.85156C3.74219 5.26406 2.5 7.50469 2.5 10C2.5 11.9891 3.29018 13.8968 4.6967 15.3033C6.10322 16.7098 8.01088 17.5 10 17.5C11.9891 17.5 13.8968 16.7098 15.3033 15.3033C16.7098 13.8968 17.5 11.9891 17.5 10C17.5 7.50469 16.2578 5.26406 14.0914 3.85156Z" fill="#FF6666"/>
</g>
</svg>
